<svg xmlns="http://www.w3.org/2000/svg" width="197" height="203" viewBox="0 0 197 203" fill="none">
  <g clip-path="url(#clip0_13_47)" filter="url(#filter0_d_13_47)">
    <path d="M188.774 75.1622C191.197 89.1328 176.331 85.4117 176.331 85.4117C170.11 67.9157 160.156 69.5478 160.156 69.5478C167.949 75.2275 168.538 80.0584 168.538 80.0584C147.779 65.3697 119.554 77.186 108.814 82.735C102.789 74.2482 90.6089 55.2508 94.9311 46.6334C100.628 35.3393 112.22 41.8024 112.22 41.8024C135.664 41.4107 134.354 33.0544 134.354 33.0544C128.133 37.8854 109.797 33.0544 109.797 33.0544C125.71 33.0544 132.455 26.5914 132.455 26.5914C120.602 29.5291 107.374 16.9295 107.374 16.9295C102.528 -7.81293 80.1311 2.69769 80.1311 2.69769C94.1452 0.282203 90.4125 15.1015 90.4125 15.1015C72.862 21.3034 74.4992 31.2265 74.4992 31.2265C80.1965 23.4578 85.0426 22.8702 85.0426 22.8702C68.9983 45.393 84.4532 76.729 89.0373 84.8894C80.655 90.6996 61.0089 103.495 52.1682 99.0559C40.839 93.3762 47.3222 81.8211 47.3222 81.8211C47.0603 58.4496 38.678 59.7553 38.678 59.7553C43.524 65.9572 38.678 84.2366 38.678 84.2366C38.678 68.3727 32.1948 61.6485 32.1948 61.6485C35.1417 73.4648 22.5027 86.652 22.5027 86.652C-2.31674 91.483 8.22663 113.81 8.22663 113.81C5.80362 99.8393 20.6691 103.56 20.6691 103.56C26.8903 121.056 36.8443 119.424 36.8443 119.424C29.0514 113.745 28.462 108.914 28.462 108.914C50.4001 124.451 80.7204 110.35 89.8886 105.388C96.0443 114.202 107.505 132.35 103.248 140.772C97.5505 152.066 85.9594 145.603 85.9594 145.603C62.5151 145.864 63.8249 154.22 63.8249 154.22C70.0461 149.389 88.3824 154.22 88.3824 154.22C72.4691 154.22 65.724 160.683 65.724 160.683C77.5771 157.746 90.8054 170.345 90.8054 170.345C95.6514 195.088 118.048 184.577 118.048 184.577C104.034 186.993 107.766 172.173 107.766 172.173C125.317 165.971 123.68 156.048 123.68 156.048C117.982 163.817 113.136 164.404 113.136 164.404C128.853 142.404 114.381 111.917 109.469 102.973C118.375 96.771 136.384 85.6728 144.701 89.8509C156.03 95.5306 149.547 107.086 149.547 107.086C149.809 130.457 158.191 129.151 158.191 129.151C153.345 122.95 158.191 104.67 158.191 104.67C158.191 120.534 164.674 127.258 164.674 127.258C161.728 115.442 174.366 102.255 174.366 102.255C199.317 97.4891 188.774 75.1622 188.774 75.1622Z" fill="url(#paint0_linear_13_47)"/>
  </g>
  <defs>
    <filter id="filter0_d_13_47" x="0" y="0.478027" width="197" height="202.449" filterUnits="userSpaceOnUse" color-interpolation-filters="sRGB">
      <feFlood flood-opacity="0" result="BackgroundImageFix"/>
      <feColorMatrix in="SourceAlpha" type="matrix" values="0 0 0 0 0 0 0 0 0 0 0 0 0 0 0 0 0 0 127 0" result="hardAlpha"/>
      <feOffset dy="10"/>
      <feGaussianBlur stdDeviation="3"/>
      <feComposite in2="hardAlpha" operator="out"/>
      <feColorMatrix type="matrix" values="0 0 0 0 0 0 0 0 0 0 0 0 0 0 0 0 0 0 0.25 0"/>
      <feBlend mode="normal" in2="BackgroundImageFix" result="effect1_dropShadow_13_47"/>
      <feBlend mode="normal" in="SourceGraphic" in2="effect1_dropShadow_13_47" result="shape"/>
    </filter>
    <linearGradient id="paint0_linear_13_47" x1="98.4938" y1="0.47998" x2="98.4938" y2="186.795" gradientUnits="userSpaceOnUse">
      <stop stop-color="#C0B7E8"/>
      <stop offset="1" stop-color="#8176AF"/>
    </linearGradient>
    <clipPath id="clip0_13_47">
      <rect width="185" height="186.449" fill="white" transform="translate(6 0.478027)"/>
    </clipPath>
  </defs>
</svg>